<svg version="1" xmlns="http://www.w3.org/2000/svg" width="4066.667" height="4066.667" viewBox="0 0 3050.000000 3050.000000"><path d="M1517 1.1c-22.8 2.9-47.5 21.8-77.9 59.8-51.4 64.4-116 195.6-180.1 366.1-41.6 110.7-75.4 216-102.8 320.5l-2.9 11-3.2-5.5c-6.2-10.7-32.8-64.8-41.5-84.5-49.9-112.9-88.6-240.1-98.6-324-.6-5-1.5-16.9-2-26.5-.7-14.5-1.3-18.9-3.4-25.6-6-18.9-20.1-33.1-39.8-40.2-6.3-2.2-8.9-2.6-19.3-2.7-21.7 0-32.3 5.3-54.9 28-90.6 90.6-189.5 242.3-261.9 402-97.6 215.2-163.7 462.2-195.1 729-13.3 112.7-18.5 203.6-17.3 301.5.7 51.8 1.6 73.9 4.8 119 19.2 271.4 96.1 516.9 223.8 714.9 38.9 60.4 80.1 111.7 126.4 157.6 8.4 8.3 26.7 26.9 40.7 41.4 48.4 50.1 95.5 90 152 128.9 97.5 66.9 212.5 118.1 332 147.7 173.8 43 357.4 38.2 529-13.9 125.5-38 244.7-102.3 345-186 25.9-21.5 41-35.5 68.1-62.5 46.1-46.2 81.7-88.7 115.9-138.6 5.7-8.3 14-20.2 18.4-26.5 19.7-28.2 26.2-37.9 36.9-54.6 125.2-196.7 200.6-439.9 219.6-708.4 3.2-45 4.1-67.1 4.8-118.5 1.2-98.1-4-189.3-17.3-302-43.9-373.8-156.7-709.6-322.9-961.6-44.6-67.7-91-126.2-134.1-169.4-15.8-15.9-23.2-21.2-34.9-25.2-7-2.5-9.4-2.8-20-2.8-10.4.1-13 .5-19.3 2.7-19.7 7.1-33.8 21.3-39.8 40.2-2.1 6.7-2.7 11.1-3.4 25.6-.5 9.6-1.4 21.5-2 26.5-10 83.9-48.7 211.1-98.6 324-8.7 19.7-35.3 73.8-41.5 84.5l-3.2 5.5-2.4-9c-41.3-158-103.4-335.7-167.6-480-59.2-133.1-112.5-217.8-159.2-252.8-17.4-13.1-32.8-17.8-50.5-15.6zm85.5 1184.4c145.2 12.9 283.4 61.7 405 143 49.6 33.1 87.2 64.1 131.5 108.5 33.8 33.8 55.1 58.2 81.3 92.9 60 79.8 107.3 172.9 136.2 268.2 5.6 18.5 17.5 64.5 17.5 67.7 0 .9-14.4-19.9-32-46.3-17.6-26.3-34.1-50.1-36.7-52.8-3-3-7.9-6.4-13.2-9l-8.4-4.2h-13.1c-13 0-13.1 0-20.8 3.7-4.3 2-10.1 5.8-12.9 8.5-3.8 3.5-23.1 31.6-72.2 105.3-36.8 55.3-67.1 100.7-67.4 101-.2.2-47.9-47.1-106.1-105.1-79.9-79.8-106.9-106.2-110.7-108.1-9-4.7-15.8-6.1-27.1-5.6-9.1.4-10.9.8-17.8 4.1-18.4 8.7-28.8 25-28.8 45.2 0 16.5-3.9 9.8 80.3 136.1l76.2 114.4-150.9 264-150.8 264-88.6-.2-88.5-.3-38.6-231c-37.7-226-38.6-231.2-42-238-6.4-13-19.7-23.5-33.7-26.4-3.7-.8-49.6-1.1-154.2-1.1h-148.9l-1-3.8c-.6-2-15.2-60.4-32.5-129.7-22.8-91.2-31.1-126.2-30.3-126.7.7-.4 51.6-34.4 113.2-75.5 106.4-71.1 112.2-75.1 116.7-81 8.2-10.9 11.6-24.1 9.8-37.6-.9-6.7-3.5-12.3-35.2-75.9-18.8-37.8-34-68.9-33.8-69.1 4.7-4 376.1-300.6 377.2-301.3 2-1.1 26.4-.1 51.3 2.1zm-380.6 132.9c-80 64-146.6 117.6-148.1 119.2-10.6 11.4-15.3 30.4-11.3 45.6.8 3.2 16.1 35 34 70.8 17.9 35.7 32.5 65.2 32.5 65.5 0 .3-49.2 33.3-109.3 73.3-97.3 64.9-109.7 73.5-113.4 78.4-8 10.3-12.1 24.1-10.8 35.9.4 3 19.7 81.6 42.9 174.5 30.6 122.1 43.1 170.6 45.2 174.9 3.9 7.9 13.2 17.4 21.3 21.4 12.4 6.3 5.4 6.1 165.9 6.1 80.4 0 146.2.1 146.2.2 0 .2 17.3 104 38.5 230.8l38.4 230.5 3.7 7.5c7 14.1 21.2 24.6 36.4 27 9.1 1.4 256.2 1.4 265-.1 9.5-1.5 19.7-6.8 26.7-13.8 5.2-5.2 22-34.3 168.2-290.2 89.4-156.4 164-287 165.9-290.2l3.4-5.9 6.7 6.5c7.6 7.4 14.2 11 23.8 13.3 16.7 3.9 36.4-2.2 47.7-14.6 2-2.2 31.5-46 65.7-97.2 34.2-51.3 62.5-93.6 62.8-94.1.4-.4 28.3 40.6 62.1 91.2l61.3 92-.2 9.3c-.2 10.5-1.6 31.8-3.2 48.3-13.3 139.6-60.8 274.8-137.7 392-33.4 51-68.1 93.5-113.2 138.5-45 45.1-87.5 79.8-138.5 113.2-162.9 106.8-358 155.6-552.5 138.3-161.4-14.5-307.6-71.2-438-170.1-53.2-40.3-109.4-95-151.6-147.4-79.1-98.3-135.6-212-166.3-334.5-29.8-119.2-33.5-249.9-10.6-371.5 41.2-218.2 164.5-411.9 346-543.6 86-62.3 185.5-109.1 289.5-136.1 16.8-4.4 46-11.1 48.9-11.2.7-.1-64.1 52.3-144 116.3z"/></svg>